<svg xmlns="http://www.w3.org/2000/svg" xmlns:xlink="http://www.w3.org/1999/xlink" width="1761" zoomAndPan="magnify" viewBox="0 0 1320.75 506.249968" height="675" preserveAspectRatio="xMidYMid meet" version="1.0"><defs><filter x="0%" y="0%" width="100%" height="100%" id="b66594788f"><feColorMatrix values="0 0 0 0 1 0 0 0 0 1 0 0 0 0 1 0 0 0 1 0" color-interpolation-filters="sRGB"/></filter><g/><clipPath id="8792519570"><path d="M 251 111 L 467.589844 111 L 467.589844 394.828125 L 251 394.828125 Z M 251 111 " clip-rule="nonzero"/></clipPath><clipPath id="e05b6afe20"><path d="M 16.011719 111 L 233 111 L 233 394.828125 L 16.011719 394.828125 Z M 16.011719 111 " clip-rule="nonzero"/></clipPath><mask id="fbca975e58"><g filter="url(#b66594788f)"><rect x="-132.075" width="1584.9" fill="#000000" y="-50.624997" height="607.499961" fill-opacity="0.8"/></g></mask><clipPath id="fda92a5be0"><rect x="0" width="819" y="0" height="243"/></clipPath><mask id="4c67e88790"><g filter="url(#b66594788f)"><rect x="-132.075" width="1584.9" fill="#000000" y="-50.624997" height="607.499961" fill-opacity="0.8"/></g></mask><clipPath id="4bc76be140"><rect x="0" width="709" y="0" height="75"/></clipPath></defs><g clip-path="url(#8792519570)"><path fill="#ffd200" d="M 358.136719 136.160156 C 251.730469 136.976562 251.730469 187.476562 251.730469 187.476562 L 251.730469 394.226562 C 251.730469 394.226562 265.828125 370.007812 361.433594 369.273438 C 467.839844 368.457031 467.839844 317.957031 467.839844 317.957031 L 467.839844 111.207031 C 467.839844 111.207031 453.742188 135.425781 358.136719 136.160156 " fill-opacity="1" fill-rule="nonzero"/></g><g clip-path="url(#e05b6afe20)"><path fill="#00983d" d="M 125.738281 136.160156 C 232.144531 136.976562 232.144531 187.476562 232.144531 187.476562 L 232.144531 394.226562 C 232.144531 394.226562 218.046875 370.007812 122.441406 369.273438 C 16.035156 368.457031 16.035156 317.957031 16.035156 317.957031 L 16.035156 111.207031 C 16.035156 111.207031 30.132812 135.425781 125.738281 136.160156 " fill-opacity="1" fill-rule="nonzero"/></g><g mask="url(#fbca975e58)"><g transform="matrix(1, 0, 0, 1, 488, 93)"><g clip-path="url(#fda92a5be0)"><g fill="#000000" fill-opacity="1"><g transform="translate(0.402792, 189.730788)"><g><path d="M 88.8125 0 L 15.921875 0 L 15.921875 -126.546875 L 88.8125 -126.546875 L 88.8125 -104.5625 L 42.765625 -104.5625 L 42.765625 -76.78125 L 85.609375 -76.78125 L 85.609375 -54.796875 L 42.765625 -54.796875 L 42.765625 -22.15625 L 88.8125 -22.15625 Z M 88.8125 0 "/></g></g></g><g fill="#000000" fill-opacity="1"><g transform="translate(99.676176, 189.730788)"><g><path d="M 120.921875 -64.484375 C 120.921875 -43.648438 114.988281 -27.691406 103.125 -16.609375 C 91.269531 -5.535156 74.148438 0 51.765625 0 L 15.921875 0 L 15.921875 -126.546875 L 55.65625 -126.546875 C 76.3125 -126.546875 92.351562 -121.09375 103.78125 -110.1875 C 115.207031 -99.28125 120.921875 -84.046875 120.921875 -64.484375 Z M 93.046875 -63.796875 C 93.046875 -90.972656 81.046875 -104.5625 57.046875 -104.5625 L 42.765625 -104.5625 L 42.765625 -22.15625 L 54.265625 -22.15625 C 80.117188 -22.15625 93.046875 -36.035156 93.046875 -63.796875 Z M 93.046875 -63.796875 "/></g></g></g><g fill="#000000" fill-opacity="1"><g transform="translate(230.886648, 189.730788)"><g><path d="M 118.921875 -126.546875 L 118.921875 -44.65625 C 118.921875 -35.3125 116.828125 -27.117188 112.640625 -20.078125 C 108.460938 -13.035156 102.421875 -7.640625 94.515625 -3.890625 C 86.609375 -0.140625 77.257812 1.734375 66.46875 1.734375 C 50.195312 1.734375 37.5625 -2.429688 28.5625 -10.765625 C 19.5625 -19.109375 15.0625 -30.523438 15.0625 -45.015625 L 15.0625 -126.546875 L 41.8125 -126.546875 L 41.8125 -49.078125 C 41.8125 -39.328125 43.769531 -32.171875 47.6875 -27.609375 C 51.613281 -23.046875 58.109375 -20.765625 67.171875 -20.765625 C 75.941406 -20.765625 82.300781 -23.054688 86.25 -27.640625 C 90.207031 -32.234375 92.1875 -39.4375 92.1875 -49.25 L 92.1875 -126.546875 Z M 118.921875 -126.546875 "/></g></g></g><g fill="#000000" fill-opacity="1"><g transform="translate(364.866735, 189.730788)"><g><path d="M 64.75 0 L 37.90625 0 L 37.90625 -104.21875 L 3.546875 -104.21875 L 3.546875 -126.546875 L 99.109375 -126.546875 L 99.109375 -104.21875 L 64.75 -104.21875 Z M 64.75 0 "/></g></g></g><g fill="#000000" fill-opacity="1"><g transform="translate(467.515564, 189.730788)"><g><path d="M 88.8125 0 L 15.921875 0 L 15.921875 -126.546875 L 88.8125 -126.546875 L 88.8125 -104.5625 L 42.765625 -104.5625 L 42.765625 -76.78125 L 85.609375 -76.78125 L 85.609375 -54.796875 L 42.765625 -54.796875 L 42.765625 -22.15625 L 88.8125 -22.15625 Z M 88.8125 0 "/></g></g></g><g fill="#000000" fill-opacity="1"><g transform="translate(566.788948, 189.730788)"><g><path d="M 69.671875 -106.03125 C 59.578125 -106.03125 51.757812 -102.234375 46.21875 -94.640625 C 40.675781 -87.054688 37.90625 -76.484375 37.90625 -62.921875 C 37.90625 -34.703125 48.492188 -20.59375 69.671875 -20.59375 C 78.554688 -20.59375 89.320312 -22.816406 101.96875 -27.265625 L 101.96875 -4.765625 C 91.570312 -0.429688 79.972656 1.734375 67.171875 1.734375 C 48.765625 1.734375 34.679688 -3.847656 24.921875 -15.015625 C 15.171875 -26.179688 10.296875 -42.207031 10.296875 -63.09375 C 10.296875 -76.25 12.691406 -87.773438 17.484375 -97.671875 C 22.273438 -107.566406 29.15625 -115.15625 38.125 -120.4375 C 47.101562 -125.71875 57.617188 -128.359375 69.671875 -128.359375 C 81.960938 -128.359375 94.3125 -125.390625 106.71875 -119.453125 L 98.0625 -97.640625 C 93.332031 -99.890625 88.570312 -101.847656 83.78125 -103.515625 C 79 -105.191406 74.296875 -106.03125 69.671875 -106.03125 Z M 69.671875 -106.03125 "/></g></g></g><g fill="#000000" fill-opacity="1"><g transform="translate(679.737303, 189.730788)"><g><path d="M 119.625 0 L 92.875 0 L 92.875 -54.609375 L 42.765625 -54.609375 L 42.765625 0 L 15.921875 0 L 15.921875 -126.546875 L 42.765625 -126.546875 L 42.765625 -76.953125 L 92.875 -76.953125 L 92.875 -126.546875 L 119.625 -126.546875 Z M 119.625 0 "/></g></g></g></g></g></g><g mask="url(#4c67e88790)"><g transform="matrix(1, 0, 0, 1, 501, 319)"><g clip-path="url(#4bc76be140)"><g fill="#000000" fill-opacity="1"><g transform="translate(3.398876, 57.159497)"><g><path d="M 5.078125 0 L 5.078125 -36.96875 L 9.375 -36.96875 L 9.375 0 Z M 5.078125 0 "/></g></g></g><g fill="#000000" fill-opacity="1"><g transform="translate(17.83548, 57.159497)"><g><path d="M 33.953125 0 L 29.046875 0 L 8.84375 -31.015625 L 8.640625 -31.015625 C 8.910156 -27.378906 9.046875 -24.046875 9.046875 -21.015625 L 9.046875 0 L 5.078125 0 L 5.078125 -36.96875 L 9.9375 -36.96875 L 30.09375 -6.0625 L 30.296875 -6.0625 C 30.253906 -6.519531 30.175781 -7.984375 30.0625 -10.453125 C 29.945312 -12.921875 29.90625 -14.6875 29.9375 -15.75 L 29.9375 -36.96875 L 33.953125 -36.96875 Z M 33.953125 0 "/></g></g></g><g fill="#000000" fill-opacity="1"><g transform="translate(56.872393, 57.159497)"><g><path d="M 33.953125 0 L 29.046875 0 L 8.84375 -31.015625 L 8.640625 -31.015625 C 8.910156 -27.378906 9.046875 -24.046875 9.046875 -21.015625 L 9.046875 0 L 5.078125 0 L 5.078125 -36.96875 L 9.9375 -36.96875 L 30.09375 -6.0625 L 30.296875 -6.0625 C 30.253906 -6.519531 30.175781 -7.984375 30.0625 -10.453125 C 29.945312 -12.921875 29.90625 -14.6875 29.9375 -15.75 L 29.9375 -36.96875 L 33.953125 -36.96875 Z M 33.953125 0 "/></g></g></g><g fill="#000000" fill-opacity="1"><g transform="translate(95.909306, 57.159497)"><g><path d="M 37.171875 -18.53125 C 37.171875 -12.613281 35.671875 -7.960938 32.671875 -4.578125 C 29.679688 -1.191406 25.523438 0.5 20.203125 0.5 C 14.753906 0.5 10.550781 -1.160156 7.59375 -4.484375 C 4.632812 -7.816406 3.15625 -12.515625 3.15625 -18.578125 C 3.15625 -24.597656 4.640625 -29.265625 7.609375 -32.578125 C 10.578125 -35.890625 14.789062 -37.546875 20.25 -37.546875 C 25.5625 -37.546875 29.707031 -35.859375 32.6875 -32.484375 C 35.675781 -29.117188 37.171875 -24.46875 37.171875 -18.53125 Z M 7.71875 -18.53125 C 7.71875 -13.53125 8.78125 -9.734375 10.90625 -7.140625 C 13.039062 -4.554688 16.140625 -3.265625 20.203125 -3.265625 C 24.296875 -3.265625 27.382812 -4.550781 29.46875 -7.125 C 31.5625 -9.707031 32.609375 -13.507812 32.609375 -18.53125 C 32.609375 -23.5 31.566406 -27.269531 29.484375 -29.84375 C 27.410156 -32.414062 24.332031 -33.703125 20.25 -33.703125 C 16.15625 -33.703125 13.039062 -32.40625 10.90625 -29.8125 C 8.78125 -27.226562 7.71875 -23.46875 7.71875 -18.53125 Z M 7.71875 -18.53125 "/></g></g></g><g fill="#000000" fill-opacity="1"><g transform="translate(136.235676, 57.159497)"><g><path d="M 26.1875 -36.96875 L 30.828125 -36.96875 L 17.5 0 L 13.25 0 L 0 -36.96875 L 4.546875 -36.96875 L 13.046875 -13.046875 C 14.023438 -10.296875 14.800781 -7.625 15.375 -5.03125 C 15.976562 -7.757812 16.769531 -10.484375 17.75 -13.203125 Z M 26.1875 -36.96875 "/></g></g></g><g fill="#000000" fill-opacity="1"><g transform="translate(167.055648, 57.159497)"><g><path d="M 28.3125 0 L 23.71875 -11.75 L 8.90625 -11.75 L 4.34375 0 L 0 0 L 14.609375 -37.109375 L 18.234375 -37.109375 L 32.765625 0 Z M 22.375 -15.625 L 18.078125 -27.078125 C 17.523438 -28.523438 16.953125 -30.300781 16.359375 -32.40625 C 15.984375 -30.789062 15.453125 -29.015625 14.765625 -27.078125 L 10.421875 -15.625 Z M 22.375 -15.625 "/></g></g></g><g fill="#000000" fill-opacity="1"><g transform="translate(199.822383, 57.159497)"><g><path d="M 33.953125 0 L 29.046875 0 L 8.84375 -31.015625 L 8.640625 -31.015625 C 8.910156 -27.378906 9.046875 -24.046875 9.046875 -21.015625 L 9.046875 0 L 5.078125 0 L 5.078125 -36.96875 L 9.9375 -36.96875 L 30.09375 -6.0625 L 30.296875 -6.0625 C 30.253906 -6.519531 30.175781 -7.984375 30.0625 -10.453125 C 29.945312 -12.921875 29.90625 -14.6875 29.9375 -15.75 L 29.9375 -36.96875 L 33.953125 -36.96875 Z M 33.953125 0 "/></g></g></g><g fill="#000000" fill-opacity="1"><g transform="translate(238.859296, 57.159497)"><g><path d="M 34.59375 -18.84375 C 34.59375 -12.738281 32.9375 -8.070312 29.625 -4.84375 C 26.3125 -1.613281 21.546875 0 15.328125 0 L 5.078125 0 L 5.078125 -36.96875 L 16.40625 -36.96875 C 22.15625 -36.96875 26.625 -35.375 29.8125 -32.1875 C 33 -29 34.59375 -24.550781 34.59375 -18.84375 Z M 30.03125 -18.6875 C 30.03125 -23.507812 28.820312 -27.140625 26.40625 -29.578125 C 23.988281 -32.023438 20.394531 -33.25 15.625 -33.25 L 9.375 -33.25 L 9.375 -3.71875 L 14.609375 -3.71875 C 19.734375 -3.71875 23.582031 -4.976562 26.15625 -7.5 C 28.738281 -10.019531 30.03125 -13.75 30.03125 -18.6875 Z M 30.03125 -18.6875 "/></g></g></g><g fill="#000000" fill-opacity="1"><g transform="translate(276.606803, 57.159497)"><g><path d="M 37.171875 -18.53125 C 37.171875 -12.613281 35.671875 -7.960938 32.671875 -4.578125 C 29.679688 -1.191406 25.523438 0.5 20.203125 0.5 C 14.753906 0.5 10.550781 -1.160156 7.59375 -4.484375 C 4.632812 -7.816406 3.15625 -12.515625 3.15625 -18.578125 C 3.15625 -24.597656 4.640625 -29.265625 7.609375 -32.578125 C 10.578125 -35.890625 14.789062 -37.546875 20.25 -37.546875 C 25.5625 -37.546875 29.707031 -35.859375 32.6875 -32.484375 C 35.675781 -29.117188 37.171875 -24.46875 37.171875 -18.53125 Z M 7.71875 -18.53125 C 7.71875 -13.53125 8.78125 -9.734375 10.90625 -7.140625 C 13.039062 -4.554688 16.140625 -3.265625 20.203125 -3.265625 C 24.296875 -3.265625 27.382812 -4.550781 29.46875 -7.125 C 31.5625 -9.707031 32.609375 -13.507812 32.609375 -18.53125 C 32.609375 -23.5 31.566406 -27.269531 29.484375 -29.84375 C 27.410156 -32.414062 24.332031 -33.703125 20.25 -33.703125 C 16.15625 -33.703125 13.039062 -32.40625 10.90625 -29.8125 C 8.78125 -27.226562 7.71875 -23.46875 7.71875 -18.53125 Z M 7.71875 -18.53125 "/></g></g></g><g fill="#000000" fill-opacity="1"><g transform="translate(316.933173, 57.159497)"><g/></g></g><g fill="#000000" fill-opacity="1"><g transform="translate(330.383716, 57.159497)"><g><path d="M 25.6875 0 L 5.078125 0 L 5.078125 -36.96875 L 25.6875 -36.96875 L 25.6875 -33.140625 L 9.375 -33.140625 L 9.375 -21.234375 L 24.703125 -21.234375 L 24.703125 -17.453125 L 9.375 -17.453125 L 9.375 -3.84375 L 25.6875 -3.84375 Z M 25.6875 0 "/></g></g></g><g fill="#000000" fill-opacity="1"><g transform="translate(359.18105, 57.159497)"><g><path d="M 33.953125 0 L 29.046875 0 L 8.84375 -31.015625 L 8.640625 -31.015625 C 8.910156 -27.378906 9.046875 -24.046875 9.046875 -21.015625 L 9.046875 0 L 5.078125 0 L 5.078125 -36.96875 L 9.9375 -36.96875 L 30.09375 -6.0625 L 30.296875 -6.0625 C 30.253906 -6.519531 30.175781 -7.984375 30.0625 -10.453125 C 29.945312 -12.921875 29.90625 -14.6875 29.9375 -15.75 L 29.9375 -36.96875 L 33.953125 -36.96875 Z M 33.953125 0 "/></g></g></g><g fill="#000000" fill-opacity="1"><g transform="translate(398.217963, 57.159497)"><g/></g></g><g fill="#000000" fill-opacity="1"><g transform="translate(411.668506, 57.159497)"><g><path d="M 25.6875 0 L 5.078125 0 L 5.078125 -36.96875 L 25.6875 -36.96875 L 25.6875 -33.140625 L 9.375 -33.140625 L 9.375 -21.234375 L 24.703125 -21.234375 L 24.703125 -17.453125 L 9.375 -17.453125 L 9.375 -3.84375 L 25.6875 -3.84375 Z M 25.6875 0 "/></g></g></g><g fill="#000000" fill-opacity="1"><g transform="translate(440.465839, 57.159497)"><g><path d="M 34.59375 -18.84375 C 34.59375 -12.738281 32.9375 -8.070312 29.625 -4.84375 C 26.3125 -1.613281 21.546875 0 15.328125 0 L 5.078125 0 L 5.078125 -36.96875 L 16.40625 -36.96875 C 22.15625 -36.96875 26.625 -35.375 29.8125 -32.1875 C 33 -29 34.59375 -24.550781 34.59375 -18.84375 Z M 30.03125 -18.6875 C 30.03125 -23.507812 28.820312 -27.140625 26.40625 -29.578125 C 23.988281 -32.023438 20.394531 -33.25 15.625 -33.25 L 9.375 -33.25 L 9.375 -3.71875 L 14.609375 -3.71875 C 19.734375 -3.71875 23.582031 -4.976562 26.15625 -7.5 C 28.738281 -10.019531 30.03125 -13.75 30.03125 -18.6875 Z M 30.03125 -18.6875 "/></g></g></g><g fill="#000000" fill-opacity="1"><g transform="translate(478.213346, 57.159497)"><g><path d="M 33 -36.96875 L 33 -13.046875 C 33 -8.828125 31.722656 -5.515625 29.171875 -3.109375 C 26.628906 -0.703125 23.132812 0.5 18.6875 0.5 C 14.238281 0.5 10.796875 -0.710938 8.359375 -3.140625 C 5.921875 -5.566406 4.703125 -8.898438 4.703125 -13.140625 L 4.703125 -36.96875 L 9 -36.96875 L 9 -12.84375 C 9 -9.757812 9.84375 -7.390625 11.53125 -5.734375 C 13.21875 -4.085938 15.695312 -3.265625 18.96875 -3.265625 C 22.082031 -3.265625 24.484375 -4.09375 26.171875 -5.75 C 27.859375 -7.414062 28.703125 -9.796875 28.703125 -12.890625 L 28.703125 -36.96875 Z M 33 -36.96875 "/></g></g></g><g fill="#000000" fill-opacity="1"><g transform="translate(515.910287, 57.159497)"><g><path d="M 20.90625 -33.65625 C 16.84375 -33.65625 13.632812 -32.300781 11.28125 -29.59375 C 8.9375 -26.882812 7.765625 -23.179688 7.765625 -18.484375 C 7.765625 -13.640625 8.894531 -9.898438 11.15625 -7.265625 C 13.425781 -4.628906 16.660156 -3.3125 20.859375 -3.3125 C 23.441406 -3.3125 26.382812 -3.773438 29.6875 -4.703125 L 29.6875 -0.9375 C 27.125 0.0195312 23.960938 0.5 20.203125 0.5 C 14.753906 0.5 10.550781 -1.148438 7.59375 -4.453125 C 4.632812 -7.753906 3.15625 -12.445312 3.15625 -18.53125 C 3.15625 -22.34375 3.867188 -25.679688 5.296875 -28.546875 C 6.722656 -31.410156 8.78125 -33.617188 11.46875 -35.171875 C 14.15625 -36.722656 17.316406 -37.5 20.953125 -37.5 C 24.835938 -37.5 28.226562 -36.789062 31.125 -35.375 L 29.296875 -31.6875 C 26.503906 -33 23.707031 -33.65625 20.90625 -33.65625 Z M 20.90625 -33.65625 "/></g></g></g><g fill="#000000" fill-opacity="1"><g transform="translate(548.57589, 57.159497)"><g><path d="M 28.3125 0 L 23.71875 -11.75 L 8.90625 -11.75 L 4.34375 0 L 0 0 L 14.609375 -37.109375 L 18.234375 -37.109375 L 32.765625 0 Z M 22.375 -15.625 L 18.078125 -27.078125 C 17.523438 -28.523438 16.953125 -30.300781 16.359375 -32.40625 C 15.984375 -30.789062 15.453125 -29.015625 14.765625 -27.078125 L 10.421875 -15.625 Z M 22.375 -15.625 "/></g></g></g><g fill="#000000" fill-opacity="1"><g transform="translate(581.342626, 57.159497)"><g><path d="M 20.90625 -33.65625 C 16.84375 -33.65625 13.632812 -32.300781 11.28125 -29.59375 C 8.9375 -26.882812 7.765625 -23.179688 7.765625 -18.484375 C 7.765625 -13.640625 8.894531 -9.898438 11.15625 -7.265625 C 13.425781 -4.628906 16.660156 -3.3125 20.859375 -3.3125 C 23.441406 -3.3125 26.382812 -3.773438 29.6875 -4.703125 L 29.6875 -0.9375 C 27.125 0.0195312 23.960938 0.5 20.203125 0.5 C 14.753906 0.5 10.550781 -1.148438 7.59375 -4.453125 C 4.632812 -7.753906 3.15625 -12.445312 3.15625 -18.53125 C 3.15625 -22.34375 3.867188 -25.679688 5.296875 -28.546875 C 6.722656 -31.410156 8.78125 -33.617188 11.46875 -35.171875 C 14.15625 -36.722656 17.316406 -37.5 20.953125 -37.5 C 24.835938 -37.5 28.226562 -36.789062 31.125 -35.375 L 29.296875 -31.6875 C 26.503906 -33 23.707031 -33.65625 20.90625 -33.65625 Z M 20.90625 -33.65625 "/></g></g></g><g fill="#000000" fill-opacity="1"><g transform="translate(614.008229, 57.159497)"><g><path d="M 5.078125 0 L 5.078125 -36.96875 L 9.375 -36.96875 L 9.375 0 Z M 5.078125 0 "/></g></g></g><g fill="#000000" fill-opacity="1"><g transform="translate(628.444833, 57.159497)"><g><path d="M 37.171875 -18.53125 C 37.171875 -12.613281 35.671875 -7.960938 32.671875 -4.578125 C 29.679688 -1.191406 25.523438 0.5 20.203125 0.5 C 14.753906 0.5 10.550781 -1.160156 7.59375 -4.484375 C 4.632812 -7.816406 3.15625 -12.515625 3.15625 -18.578125 C 3.15625 -24.597656 4.640625 -29.265625 7.609375 -32.578125 C 10.578125 -35.890625 14.789062 -37.546875 20.25 -37.546875 C 25.5625 -37.546875 29.707031 -35.859375 32.6875 -32.484375 C 35.675781 -29.117188 37.171875 -24.46875 37.171875 -18.53125 Z M 7.71875 -18.53125 C 7.71875 -13.53125 8.78125 -9.734375 10.90625 -7.140625 C 13.039062 -4.554688 16.140625 -3.265625 20.203125 -3.265625 C 24.296875 -3.265625 27.382812 -4.550781 29.46875 -7.125 C 31.5625 -9.707031 32.609375 -13.507812 32.609375 -18.53125 C 32.609375 -23.5 31.566406 -27.269531 29.484375 -29.84375 C 27.410156 -32.414062 24.332031 -33.703125 20.25 -33.703125 C 16.15625 -33.703125 13.039062 -32.40625 10.90625 -29.8125 C 8.78125 -27.226562 7.71875 -23.46875 7.71875 -18.53125 Z M 16.65625 -40.5625 C 17.46875 -41.601562 18.335938 -42.863281 19.265625 -44.34375 C 20.203125 -45.832031 20.941406 -47.125 21.484375 -48.21875 L 26.59375 -48.21875 L 26.59375 -47.6875 C 25.851562 -46.59375 24.75 -45.242188 23.28125 -43.640625 C 21.8125 -42.035156 20.539062 -40.796875 19.46875 -39.921875 L 16.65625 -39.921875 Z M 16.65625 -40.5625 "/></g></g></g><g fill="#000000" fill-opacity="1"><g transform="translate(668.771204, 57.159497)"><g><path d="M 33.953125 0 L 29.046875 0 L 8.84375 -31.015625 L 8.640625 -31.015625 C 8.910156 -27.378906 9.046875 -24.046875 9.046875 -21.015625 L 9.046875 0 L 5.078125 0 L 5.078125 -36.96875 L 9.9375 -36.96875 L 30.09375 -6.0625 L 30.296875 -6.0625 C 30.253906 -6.519531 30.175781 -7.984375 30.0625 -10.453125 C 29.945312 -12.921875 29.90625 -14.6875 29.9375 -15.75 L 29.9375 -36.96875 L 33.953125 -36.96875 Z M 33.953125 0 "/></g></g></g></g></g></g></svg>